<svg xmlns="http://www.w3.org/2000/svg" xmlns:xlink="http://www.w3.org/1999/xlink" xml:space="preserve" style="shape-rendering:geometricPrecision;text-rendering:geometricPrecision;image-rendering:optimizeQuality;" viewBox="0 0 173.397 216.74624999999997" x="0px" y="0px" fill-rule="evenodd" clip-rule="evenodd"><defs><style type="text/css">
   
    .fil1 {fill:none}
    .fil0 {fill:white}
   
  </style></defs><g><g><path class="fil0" d="M146.883 124.917c0,-10.4881 -4.2514,-19.9834 -11.1247,-26.8567 -6.8733,-6.8734 -16.3686,-11.1246 -26.8566,-11.1246 -10.4879,0 -19.9833,4.2512 -26.8567,11.1246 -6.8732,6.8733 -11.1246,16.3687 -11.1246,26.8567 0,10.4879 4.2514,19.9833 11.1246,26.8565 6.8734,6.8734 16.3688,11.1247 26.8567,11.1247 10.4879,0 19.9833,-4.2513 26.8566,-11.1247 6.8733,-6.8732 11.1247,-16.3686 11.1247,-26.8565zm-46.3405 8.8723l27.18 -27.1798c1.7364,-1.7365 4.5533,-1.7365 6.2898,0 1.7365,1.7364 1.7365,4.5533 0,6.2897l-30.3133 30.3137c-1.7267,1.7599 -4.5629,1.7498 -6.3015,0.0112l-13.6065 -13.6067c-1.7365,-1.7364 -1.7365,-4.5533 0,-6.2897 1.7364,-1.7365 4.5534,-1.7365 6.2898,0l10.4617 10.4616z"/><path class="fil0" d="M122.142 26.4885c0.0391,-8.596 -6.9617,-15.6607 -15.5577,-15.6998l-63.9353 -0.2898c-8.596,-0.039 -15.6605,6.9619 -15.6996,15.558l-0.4232 93.3017 23.5528 -0.2437 0.545 24.968 22.3772 0.0309c-3.1296,-5.845 -4.8019,-12.416 -4.8019,-19.1964 0,-10.8295 4.2654,-21.1246 11.9217,-28.7811 7.6563,-7.6563 17.9515,-11.9216 28.781,-11.9216 4.5084,0 8.924,0.7398 13.0954,2.1552l0.1446 -59.8814zm-79.7981 14.119c-1.1272,0 -2.0411,0.9138 -2.0411,2.041 0,1.1272 0.9139,2.0411 2.0411,2.0411l63.9684 0c1.1272,0 2.041,-0.9139 2.041,-2.0411 0,-1.1272 -0.9138,-2.041 -2.041,-2.041l-63.9684 0zm0 11.8837c-1.1272,0 -2.0411,0.9138 -2.0411,2.041 0,1.1273 0.9139,2.0411 2.0411,2.0411l63.9684 0c1.1272,0 2.041,-0.9138 2.041,-2.0411 0,-1.1272 -0.9138,-2.041 -2.041,-2.041l-63.9684 0zm0 11.8837c-1.1272,0 -2.0411,0.9139 -2.0411,2.0411 0,1.1272 0.9139,2.041 2.0411,2.041l63.9684 0c1.1272,0 2.041,-0.9138 2.041,-2.041 0,-1.1272 -0.9138,-2.0411 -2.041,-2.0411l-63.9684 0zm0 11.8836c-1.1272,0 -2.0411,0.9139 -2.0411,2.0411 0,1.1272 0.9139,2.041 2.0411,2.041l63.9684 0c1.1272,0 2.041,-0.9138 2.041,-2.041 0,-1.1272 -0.9138,-2.0411 -2.041,-2.0411l-63.9684 0zm0 -47.5348c-1.1272,0 -2.0411,0.9139 -2.0411,2.0411 0,1.1272 0.9139,2.0411 2.0411,2.0411l63.9684 0c1.1272,0 2.041,-0.9139 2.041,-2.0411 0,-1.1272 -0.9138,-2.0411 -2.041,-2.0411l-63.9684 0z"/><polygon class="fil0" points="26.5138,122.08 47.4169,121.864 47.9018,144.079 "/></g></g><rect class="fil1" width="173.397" height="173.397"/><text x="0" y="188.397" fill="#000000" font-size="5px" font-weight="bold" font-family="'Helvetica Neue', Helvetica, Arial-Unicode, Arial, Sans-serif"></text></svg>